<!--?xml version="1.0" standalone="no"?-->
              <svg id="sw-js-blob-svg" viewBox="0 0 100 100" xmlns="http://www.w3.org/2000/svg" version="1.1">
                    <defs> 
                        <linearGradient id="sw-gradient" x1="0" x2="1" y1="1" y2="0">
                            <stop id="stop1" stop-color="rgba(252, 29, 50, 1)" offset="0%"></stop>
                            <stop id="stop2" stop-color="rgba(252, 29, 50, 1)" offset="100%"></stop>
                        </linearGradient>
                    </defs>
                <path fill="url(#sw-gradient)" d="M23.4,-28C28.5,-23.7,29.4,-14.5,29.8,-6.2C30.2,2.2,30,9.7,26.8,15.6C23.6,21.5,17.3,25.9,9.4,30.8C1.6,35.8,-7.7,41.4,-13.8,38.8C-19.9,36.2,-22.7,25.5,-26.9,16.4C-31.2,7.3,-36.8,-0.1,-35.8,-6.4C-34.7,-12.6,-27,-17.7,-19.9,-21.7C-12.8,-25.7,-6.4,-28.5,1.4,-30.2C9.2,-31.8,18.4,-32.3,23.4,-28Z" width="100%" height="100%" transform="translate(50 50)" stroke-width="0" style="transition: all 0.3s ease 0s;"></path>
              </svg>